Coordinates
version=1
nRows=12
nColumns=46
inDegrees=yes

Units are S.I. units (second, meters, Newtons, ...)
Angles are in degrees.

endheader
time	pelvis_tilt	pelvis_list	pelvis_rotation	pelvis_tx	pelvis_ty	pelvis_tz	bb_angle	bb_tx	bb_ty	bb_tz	hip_flexion_r	hip_adduction_r	hip_rotation_r	knee_angle_r	knee_angle_r_beta	ankle_angle_r	subtalar_angle_r	mtp_angle_r	crank_angle_r	hip_flexion_l	hip_adduction_l	hip_rotation_l	knee_angle_l	knee_angle_l_beta	ankle_angle_l	subtalar_angle_l	mtp_angle_l	crank_angle_l	lumbar_extension	lumbar_bending	lumbar_rotation	arm_flex_r	arm_add_r	arm_rot_r	elbow_flex_r	pro_sup_r	wrist_flex_r	wrist_dev_r	arm_flex_l	arm_add_l	arm_rot_l	elbow_flex_l	pro_sup_l	wrist_flex_l	wrist_dev_l
      5.00500000	     -6.02077146	      8.61961962	     -0.07003344	      0.10202802	      1.16190743	     -0.22597320	      0.00000000	      0.50000000	      0.00000000	      0.25000000	     29.11605379	     -8.60200126	     11.94244101	     30.23693426	      0.52773406	      5.27498715	    -11.65652046	      0.00000000	      0.00000000	     72.54508881	     -0.13805916	     -3.04803574	    110.43971062	      1.92753658	    -18.21148352	    -14.26831210	      0.00000000	      0.00000000	    -65.58908193	     -3.18878376	     -5.69839808	     86.02468785	    -24.43197691	     46.35093389	     63.73770663	     39.73206131	      0.00000000	      0.00000000	     87.87624850	    -23.31982037	     47.98859217	     55.24274466	     48.75317810	      0.00000000	      0.00000000
      5.01000000	     -6.08388639	      8.98902058	      0.16618507	      0.10206129	      1.16057966	     -0.22505291	      0.00000000	      0.50000000	      0.00000000	      0.25000000	     28.38202694	     -9.19240723	     11.42357247	     29.79915134	      0.52009331	      4.99932307	    -11.17387096	      0.00000000	      0.00000000	     74.19341730	     -0.18313899	     -3.11001317	    111.19580424	      1.94073290	    -18.72837373	    -13.51187923	      0.00000000	      0.00000000	    -65.54100600	     -3.67974201	     -6.14987342	     85.77918709	    -24.69203237	     46.24232410	     63.70737362	     39.75688752	      0.00000000	      0.00000000	     88.03394931	    -22.95745943	     47.91148339	     55.41437656	     48.76089587	      0.00000000	      0.00000000
      5.01500000	     -6.29946597	      9.27805425	      0.71089011	      0.10206692	      1.15887924	     -0.22501969	      0.00000000	      0.50000000	      0.00000000	      0.25000000	     28.01932068	     -9.98008894	     10.26312148	     29.92630503	      0.52231256	      5.30767633	     -9.63941700	      0.00000000	      0.00000000	     76.01883069	      0.26090470	     -2.98739630	    111.87989436	      1.95267252	    -18.79039775	    -12.41556416	      0.00000000	      0.00000000	    -65.39857796	     -4.05341589	     -5.23286428	     84.70310387	    -27.45532463	     45.19292790	     66.03388396	     40.78069258	      0.00000000	      0.00000000	     88.31554694	    -20.31223050	     48.10734183	     54.13281363	     48.48111120	      0.00000000	      0.00000000
      5.02000000	     -6.39788120	      9.53452292	      1.08839514	      0.10168186	      1.15755449	     -0.22387660	      0.00000000	      0.50000000	      0.00000000	      0.25000000	     27.50488454	    -10.42593166	      9.66023048	     29.95005734	      0.52272711	      5.23749384	     -9.52797385	      0.00000000	      0.00000000	     77.55752097	      0.10334066	     -3.21140746	    112.34944881	      1.96086779	    -19.09647643	    -12.02046102	      0.00000000	      0.00000000	    -65.36670634	     -4.42803051	     -5.62923935	     84.52723478	    -27.73646656	     45.06417028	     65.98388383	     40.79897347	      0.00000000	      0.00000000	     88.53613458	    -19.96870506	     48.02689780	     54.29196360	     48.48155370	      0.00000000	      0.00000000
      5.02500000	     -6.68807909	      9.86539110	      1.62375535	      0.10122964	      1.15590285	     -0.22358067	      0.00000000	      0.50000000	      0.00000000	      0.25000000	     27.50174012	    -11.12139799	      8.74593460	     30.60890832	      0.53422623	      5.60877555	     -8.41590088	      0.00000000	      0.00000000	     79.21381498	      0.45415304	     -3.35328311	    112.66524980	      1.96637956	    -19.17949659	    -11.51992261	      0.00000000	      0.00000000	    -65.23768548	     -4.80848694	     -4.91526213	     83.39575137	    -30.17811100	     43.72608004	     68.14144295	     41.64310406	      0.00000000	      0.00000000	     88.75040220	    -17.67323004	     47.98751707	     53.30429031	     48.12356528	      0.00000000	      0.00000000
      5.03000000	     -6.91518517	     10.03708191	      2.05106205	      0.10045732	      1.15441973	     -0.22304135	      0.00000000	      0.50000000	      0.00000000	      0.25000000	     27.48822723	    -11.47774529	      8.18729040	     31.27041692	      0.54577173	      5.52848081	     -8.34492331	      0.00000000	      0.00000000	     80.67278609	      0.68834831	     -3.39188720	    112.86013499	      1.96978095	    -19.08942584	    -11.31244352	      0.00000000	      0.00000000	    -65.10631608	     -5.00165471	     -5.12572436	     83.28120824	    -30.61206833	     43.57380244	     68.12470200	     41.69895625	      0.00000000	      0.00000000	     88.86597673	    -17.21305009	     47.87289079	     53.42565446	     48.09176587	      0.00000000	      0.00000000
      5.03500000	     -7.07994308	     10.22349841	      2.55233435	      0.09956628	      1.15316558	     -0.22236522	      0.00000000	      0.50000000	      0.00000000	      0.25000000	     27.53123676	    -11.83985541	      7.61709890	     32.24776637	      0.56282970	      5.49552741	     -8.49334237	      0.00000000	      0.00000000	     81.87536840	      1.06111880	     -3.44272574	    112.89480863	      1.97038612	    -18.77486520	    -11.40586943	      0.00000000	      0.00000000	    -65.10089835	     -5.11528454	     -5.35212496	     83.15977251	    -31.02937505	     43.36665643	     68.23658144	     41.75154092	      0.00000000	      0.00000000	     89.01697835	    -16.80089872	     47.69647962	     53.54014088	     48.05536640	      0.00000000	      0.00000000
      5.04000000	     -7.37057743	     10.47528151	      3.18591328	      0.09850107	      1.15192969	     -0.22195289	      0.00000000	      0.50000000	      0.00000000	      0.25000000	     27.85578651	    -12.30444125	      7.09938849	     33.51724791	      0.58498633	      5.47174904	     -8.63222701	      0.00000000	      0.00000000	     83.02988972	      1.68841778	     -3.56431815	    112.75510183	      1.96794778	    -18.14393991	    -11.42654223	      0.00000000	      0.00000000	    -65.01001865	     -5.19445552	     -5.63199423	     82.95374958	    -31.64447610	     43.01184265	     68.55552168	     41.84446368	      0.00000000	      0.00000000	     89.11630632	    -16.23789072	     47.36328558	     53.66766831	     47.98286433	      0.00000000	      0.00000000
      5.04500000	     -7.59063378	     10.71067520	      3.90493274	      0.09740456	      1.15110284	     -0.22124714	      0.00000000	      0.50000000	      0.00000000	      0.25000000	     28.18080135	    -12.74568920	      6.57443914	     34.98400909	      0.61058614	      5.43646900	     -8.72562401	      0.00000000	      0.00000000	     83.90396744	      2.34257169	     -3.67176128	    112.41913669	      1.96208408	    -17.26789484	    -11.40177854	      0.00000000	      0.00000000	    -65.18311324	     -5.41072858	     -4.56580793	     81.41178160	    -34.62361012	     40.66927193	     71.75409417	     42.79026636	      0.00000000	      0.00000000	     89.21966823	    -13.28540172	     45.85652638	     52.75328509	     47.10616651	      0.00000000	      0.00000000
      5.05000000	     -7.97383380	     10.87924693	      4.68891418	      0.09612145	      1.15016947	     -0.22141415	      0.00000000	      0.50000000	      0.00000000	      0.25000000	     28.81636196	    -13.16085647	      6.12217284	     36.65294513	      0.63971457	      5.12276601	     -9.31907180	      0.00000000	      0.00000000	     84.83222607	      3.22444344	     -3.71911685	    112.00368134	      1.95483301	    -16.12510572	    -11.57250122	      0.00000000	      0.00000000	    -65.07191305	     -5.24246377	     -4.98988025	     81.41073598	    -35.02160861	     40.54072242	     71.76194876	     42.83917011	      0.00000000	      0.00000000	     89.32560935	    -12.95909886	     45.60239999	     52.91961398	     47.02867915	      0.00000000	      0.00000000
      5.05500000	     -8.37228860	     11.10637160	      5.39517517	      0.09465244	      1.14927140	     -0.22151413	      0.00000000	      0.50000000	      0.00000000	      0.25000000	     29.74120809	    -13.57363082	      5.94401561	     38.72460023	      0.67587178	      4.66062725	     -9.84523418	      0.00000000	      0.00000000	     85.60275584	      4.04198319	     -3.80585823	    111.46680119	      1.94546269	    -14.61877556	    -11.28106307	      0.00000000	      0.00000000	    -64.98774771	     -5.17365021	     -5.29465916	     81.15110671	    -35.72378148	     40.19435032	     72.35071272	     43.05356313	      0.00000000	      0.00000000	     89.35900081	    -12.43088028	     44.78640300	     53.25214629	     46.79387113	      0.00000000	      0.00000000
      5.06000000	     -8.59230876	     11.36288151	      6.18586343	      0.09309624	      1.14909917	     -0.22147669	      0.00000000	      0.50000000	      0.00000000	      0.25000000	     30.53693398	    -14.01001447	      5.74388364	     40.89465722	      0.71374642	      3.90396040	    -10.79717250	      0.00000000	      0.00000000	     85.92907375	      4.97591281	     -3.92419888	    110.71037715	      1.93226060	    -12.76002942	    -11.20071264	      0.00000000	      0.00000000	    -65.16503014	     -4.98037496	     -5.61535110	     81.06011797	    -36.40807741	     39.79486136	     72.77078432	     43.19448543	      0.00000000	      0.00000000	     89.41930141	    -11.89852058	     44.14387296	     53.56266879	     46.61146160	      0.00000000	      0.00000000
